<?xml version="1.0" encoding="UTF-8"?>
<svg width="27px" height="27px" viewBox="0 0 27 27" version="1.1" xmlns="http://www.w3.org/2000/svg" xmlns:xlink="http://www.w3.org/1999/xlink">
    <!-- Generator: Sketch 49 (51002) - http://www.bohemiancoding.com/sketch -->
    <title>chat_grey</title>
    <desc>Created with Sketch.</desc>
    <defs></defs>
    <g id="Top-Nav-and-Footer-Assets" stroke="none" stroke-width="1" fill="none" fill-rule="evenodd">
        <g transform="translate(-168.000000, -259.000000)" fill="#908D99" fill-rule="nonzero" id="chat_grey">
            <g transform="translate(169.000000, 263.000000)">
                <path d="M23.600173,0.1 C23.500173,0 23.400173,0 23.300173,0 L0.700173,6.9 C0.600173,7 0.500173,7.1 0.500173,7.2 C0.500173,7.3 0.500173,7.5 0.700173,7.5 L6.000173,11 L7.100173,17.8 C7.100173,17.8 7.100173,17.8 7.100173,17.8 C7.100173,17.8 7.100173,17.8 7.100173,17.8 C7.100173,17.8 7.100173,17.8 7.100173,17.8 C7.100173,17.8 7.100173,17.8 7.100173,17.8 C7.100173,17.8 7.100173,17.8 7.100173,17.8 C7.100173,17.8 7.100173,17.8 7.100173,17.8 C7.100173,17.8 7.100173,17.8 7.100173,17.8 C7.100173,17.8 7.100173,17.8 7.100173,17.8 C7.100173,17.8 7.100173,17.8 7.100173,17.8 C7.100173,17.8 7.100173,17.8 7.100173,17.8 C7.100173,17.8 7.100173,17.8 7.100173,17.8 C7.100173,17.8 7.100173,17.8 7.100173,17.8 C7.100173,17.8 7.100173,17.8 7.100173,17.8 C7.100173,17.8 7.100173,17.8 7.100173,17.8 C7.100173,17.8 7.100173,17.8 7.100173,17.8 C7.100173,17.8 7.100173,17.8 7.100173,17.8 C7.100173,17.8 7.100173,17.8 7.100173,17.8 C7.100173,17.8 7.100173,17.8 7.100173,17.8 C7.100173,17.8 7.100173,17.8 7.100173,17.8 C7.100173,17.8 7.100173,17.8 7.100173,17.8 C7.100173,17.8 7.100173,17.8 7.100173,17.8 C7.100173,17.8 7.100173,17.8 7.100173,17.8 C7.100173,17.8 7.100173,17.8 7.100173,17.8 C7.100173,17.8 7.100173,17.8 7.100173,17.8 C7.100173,17.8 7.100173,17.8 7.100173,17.8 C7.100173,17.8 7.100173,17.8 7.100173,17.8 C7.100173,17.8 7.100173,17.8 7.100173,17.8 C7.100173,17.8 7.100173,17.8 7.100173,17.8 C7.100173,17.8 7.100173,17.8 7.100173,17.8 C7.100173,17.8 7.100173,17.8 7.100173,17.8 C7.100173,17.8 7.100173,17.8 7.100173,17.8 C7.100173,17.8 7.100173,17.8 7.100173,17.8 C7.100173,17.8 7.100173,17.8 7.100173,17.8 C7.100173,17.8 7.100173,17.8 7.100173,17.8 C7.100173,17.8 7.100173,17.8 7.100173,17.8 C7.100173,17.8 7.100173,17.8 7.100173,17.8 C7.100173,17.8 7.100173,17.8 7.100173,17.8 C7.100173,17.8 7.100173,17.8 7.100173,17.8 C7.100173,17.8 7.100173,17.8 7.100173,17.8 C7.100173,17.8 7.100173,17.8 7.100173,17.8 L10.600173,14.2 L16.900173,18.3 C17.000173,18.3 17.000173,18.4 17.100173,18.4 C17.100173,18.4 17.200173,18.4 17.200173,18.4 C17.300173,18.4 17.400173,18.3 17.400173,18.2 L23.100173,0.4 C23.700173,0.3 23.700173,0.2 23.600173,0.1 Z M9.400173,12.7 C9.400173,12.7 9.400173,12.7 9.400173,12.7 C9.400173,12.7 9.400173,12.7 9.400173,12.7 C9.400173,12.7 9.400173,12.7 9.400173,12.7 C9.400173,12.7 9.400173,12.8 9.400173,12.7 C9.400173,12.8 9.400173,12.8 9.400173,12.7 C9.400173,12.8 9.400173,12.8 9.400173,12.7 C9.300173,12.8 9.300173,12.8 9.400173,12.7 C9.300173,12.8 9.300173,12.8 9.300173,12.8 L7.600173,16.5 L6.700173,10.9 L20.400173,2.6 L9.400173,12.7 Z M8.700173,15.9 L9.900173,13.5 L10.600173,14 L8.700173,15.9 Z" id="Shape"></path>
            </g>
        </g>
    </g>
</svg>