<?xml version="1.0" encoding="UTF-8"?>
<svg width="27px" height="27px" viewBox="0 0 27 27" version="1.1" xmlns="http://www.w3.org/2000/svg" xmlns:xlink="http://www.w3.org/1999/xlink">
    <!-- Generator: Sketch 49 (51002) - http://www.bohemiancoding.com/sketch -->
    <title>github_grey</title>
    <desc>Created with Sketch.</desc>
    <defs></defs>
    <g id="Top-Nav-and-Footer-Assets" stroke="none" stroke-width="1" fill="none" fill-rule="evenodd">
        <g transform="translate(-130.000000, -259.000000)" fill="#908D99" fill-rule="nonzero" id="github-logo">
            <path d="M149.726937,263 C150.125461,263.787368 150.324723,264.968421 149.926199,265.952631 C151.321033,267.035263 151.819188,269.791052 151.121771,272.054736 C153.114391,272.153157 155.405904,271.956315 157,272.546842 C155.605166,272.349999 153.612546,272.054736 151.819188,272.153157 C151.520295,272.153157 150.922509,272.153157 151.02214,272.645263 C153.114391,272.842105 155.206642,272.940526 157,273.531052 C155.306273,273.235789 153.214022,272.842105 151.02214,272.842105 C150.125461,274.515262 148.332103,275.302631 145.940959,275.499473 C146.239852,276.089999 146.738007,276.286841 146.837638,277.172631 C147.0369,278.452104 146.538745,280.420525 147.0369,281.306315 C147.236162,281.699999 147.634686,281.699999 147.833948,282.093683 C147.236162,282.78263 145.741697,281.995262 145.542435,281.306315 C145.243542,280.125262 145.940959,278.156841 145.143911,277.369473 C145.243542,278.747367 144.845018,280.617367 145.243542,281.79842 C145.442804,282.290525 145.841328,282.487367 145.741697,282.881051 C142.95203,283.176315 144.147601,279.436315 143.649446,277.271052 C143.250923,277.271052 143.450185,277.861578 143.450185,278.156841 C143.450185,280.322104 143.948339,283.274736 141.457565,282.979472 C141.357934,282.487367 141.756458,282.388946 141.95572,281.995262 C142.354244,280.814209 141.856089,278.94421 142.055351,277.566315 C141.158672,278.255262 142.154982,280.518946 141.557196,281.699999 C141.258303,282.388946 140.162362,282.684209 139.365314,282.388946 C139.464945,281.896841 140.062731,281.995262 140.261993,281.503157 C140.560886,280.814209 140.261993,279.92842 140.361624,278.94421 C138.667897,279.239473 137.273063,278.94421 136.675277,277.861578 C136.376384,277.369473 136.276753,276.877368 135.97786,276.483683 C135.579336,276.089999 135.081181,275.991578 134.881919,275.499473 C136.97417,275.007368 137.073801,277.566315 138.96679,277.664736 C139.564576,277.664736 139.863469,277.467894 140.361624,277.369473 C140.560886,276.680525 140.859779,276.286841 141.357934,275.893157 C138.96679,275.597894 137.073801,274.908947 136.077491,273.137368 C133.885609,273.235789 131.99262,273.531052 130.099631,273.924736 C131.793358,273.33421 133.785978,273.137368 135.97786,273.038947 C135.878229,272.251578 134.682657,272.546842 133.98524,272.546842 C132.690037,272.645263 130.99631,272.743684 130,272.940526 C131.494465,272.44842 133.586716,272.44842 135.678967,272.44842 C135.081181,270.578421 135.280443,267.625789 136.675277,266.543158 C136.276753,265.657368 136.376384,264.082632 136.874539,263.393684 C138.369004,263.492105 139.265683,264.082632 140.261993,264.673158 C141.457565,264.377895 142.653137,264.181053 144.346863,264.279474 C145.04428,264.279474 145.741697,264.574737 146.239852,264.574737 C146.738007,264.574737 147.335793,263.98421 147.833948,263.787368 C148.431734,263.098421 149.02952,263 149.726937,263 Z"></path>
        </g>
    </g>
</svg>