<?xml version="1.0" encoding="UTF-8"?>
<svg width="30px" height="30px" viewBox="0 0 30 30" version="1.1" xmlns="http://www.w3.org/2000/svg" xmlns:xlink="http://www.w3.org/1999/xlink">
    <!-- Generator: Sketch 49.1 (51147) - http://www.bohemiancoding.com/sketch -->
    <title>twitter_grey</title>
    <desc>Created with Sketch.</desc>
    <defs>
        <polygon id="path-1" points="0 0 23 0 23 19 0 19"></polygon>
    </defs>
    <g id="Top-Nav-and-Footer-Assets" stroke="none" stroke-width="1" fill="none" fill-rule="evenodd">
        <g transform="translate(-320.000000, -259.000000)" id="Page-1">
            <g transform="translate(324.000000, 265.000000)">
                <mask id="mask-2" fill="white">
                    <use xlink:href="#path-1"></use>
                </mask>
                <g id="Clip-2"></g>
                <path d="M7.233408,19 C15.912964,19 20.659428,11.6908474 20.659428,5.35293191 C20.659428,5.14523718 20.655288,4.93847759 20.645996,4.73284017 C21.567284,4.05589188 22.368144,3.21117936 23,2.24938724 C22.15452,2.63111164 21.244548,2.88846233 20.29014,3.00451328 C21.264328,2.41079251 22.01238,1.47116322 22.365108,0.351238815 C21.453112,0.900633927 20.443688,1.30031303 19.368852,1.51539537 C18.507732,0.583153688 17.281372,0 15.924372,0 C13.318196,0 11.204864,2.14811151 11.204864,4.79614919 C11.204864,5.1726368 11.246356,5.53855732 11.327316,5.88979614 C7.405632,5.68939551 3.92794,3.78067999 1.600892,0.878471094 C1.195264,1.58712065 0.961768,2.41079251 0.961768,3.2892636 C0.961768,4.95334633 1.79492,6.42235872 3.061668,7.28175295 C2.287672,7.2575328 1.560412,7.04132829 0.924416,6.68167321 C0.923404,6.70168522 0.923404,6.72179075 0.923404,6.74283141 C0.923404,9.06609475 2.550148,11.0053894 4.709204,11.445186 C4.312868,11.5547845 3.895832,11.6139789 3.465272,11.6139789 C3.161212,11.6139789 2.865524,11.5833063 2.578208,11.5273849 C3.178876,13.4330144 4.920804,14.8197344 6.98648,14.8588233 C5.371052,16.1453898 3.336564,16.912018 1.125712,16.912018 C0.744924,16.912018 0.36938,16.8898552 0,16.8455295 C2.088492,18.2059721 4.568076,19 7.233408,19" id="Fill-1" fill="#908D99" mask="url(#mask-2)"></path>
            </g>
        </g>
    </g>
</svg>